<svg width="512" height="512" viewBox="0 0 512 512" fill="none" xmlns="http://www.w3.org/2000/svg">
  <rect width="512" height="512" rx="128" fill="#10a37f"/>
  <path d="M256 96C167.6 96 96 167.6 96 256C96 344.4 167.6 416 256 416C344.4 416 416 344.4 416 256C416 167.6 344.4 96 256 96ZM256 136C322.3 136 376 189.7 376 256C376 322.3 322.3 376 256 376C189.7 376 136 322.3 136 256C136 189.7 189.7 136 256 136Z" fill="white"/>
  <circle cx="256" cy="256" r="60" fill="white"/>
  <path d="M256 196L276 236L320 242L288 274L296 318L256 296L216 318L224 274L192 242L236 236L256 196Z" fill="#10a37f"/>
</svg>
